<svg width="41" height="34" viewBox="0 0 41 34" fill="none" xmlns="http://www.w3.org/2000/svg">
<path d="M41 4C39.4909 4.7 37.8642 5.16 36.1788 5.38C37.9034 4.32 39.2361 2.64 39.8633 0.62C38.2366 1.62 36.4336 2.32 34.5325 2.72C32.9842 1 30.8088 0 28.3394 0C23.7337 0 19.9708 3.84 19.9708 8.58C19.9708 9.26 20.0492 9.92 20.1864 10.54C13.2094 10.18 6.99665 6.76 2.86138 1.58C2.13623 2.84 1.72467 4.32 1.72467 5.88C1.72467 8.86 3.19455 11.5 5.46797 13C4.07648 13 2.78298 12.6 1.64627 12V12.06C1.64627 16.22 4.54685 19.7 8.38815 20.48C7.15487 20.8244 5.86013 20.8723 4.60564 20.62C5.13795 22.325 6.18045 23.8168 7.5866 24.8859C8.99275 25.9549 10.6918 26.5474 12.445 26.58C9.47318 28.9809 5.78938 30.2786 1.99904 30.26C1.3327 30.26 0.666348 30.22 0 30.14C3.72371 32.58 8.15296 34 12.8958 34C28.3394 34 36.8255 20.92 36.8255 9.58C36.8255 9.2 36.8255 8.84 36.8059 8.46C38.4522 7.26 39.8633 5.74 41 4Z" fill="white"/>
</svg>
